<?xml version="1.0" encoding="UTF-8" standalone="no"?>
<svg
   xmlns:dc="http://purl.org/dc/elements/1.1/"
   xmlns:cc="http://creativecommons.org/ns#"
   xmlns:rdf="http://www.w3.org/1999/02/22-rdf-syntax-ns#"
   xmlns:svg="http://www.w3.org/2000/svg"
   xmlns="http://www.w3.org/2000/svg"
   viewBox="0 0 254.70667 142.62666"
   height="142.62666"
   width="254.70667"
   xml:space="preserve"
   id="svg2"
   version="1.1"><metadata
     id="metadata8"><rdf:RDF><cc:Work
         rdf:about=""><dc:format>image/svg+xml</dc:format><dc:type
           rdf:resource="http://purl.org/dc/dcmitype/StillImage" /></cc:Work></rdf:RDF></metadata><defs
     id="defs6" /><g
     transform="matrix(1.3333333,0,0,-1.3333333,0,142.62667)"
     id="g10"><g
       transform="scale(0.1)"
       id="g12"><path
         id="path14"
         style="fill:#547283;fill-opacity:1;fill-rule:nonzero;stroke:none"
         d="M 0.5,676.379 H 400.891 V 609.66 H 91.4961 V 522.434 H 271.965 V 455.695 H 91.4961 V 358.664 H 404.668 V 285.109 H 0.5 v 391.27" /><path
         id="path16"
         style="fill:#547283;fill-opacity:1;fill-rule:nonzero;stroke:none"
         d="m 573.809,454.953 v -99.336 h 207.785 c 31.094,0 43.953,6.074 43.953,34.883 v 29.57 c 0,28.809 -12.859,34.883 -43.953,34.883 z m 0,157.715 v -93.242 h 207.785 c 28.054,0 41.679,5.293 41.679,28.027 v 37.168 c 0,22.734 -13.625,28.047 -41.679,28.047 z m -89.485,63.711 h 335.16 c 59.903,0 87.957,-21.231 87.957,-75.84 v -47.773 c 0,-37.911 -24.257,-60.664 -67.461,-65.977 45.489,-6.074 70.5,-33.34 70.5,-75.059 v -50.039 c 0,-52.324 -38.664,-76.582 -115.253,-76.582 H 484.324 v 391.27" /><path
         id="path18"
         style="fill:#547283;fill-opacity:1;fill-rule:nonzero;stroke:none"
         d="m 1299.53,441.32 -84.16,159.219 -87.21,-159.219 z m -125.12,235.059 h 87.99 l 224.45,-391.27 h -102.38 l -47.02,85.684 H 1089.5 L 1044,285.109 h -90.973 l 221.383,391.27" /><path
         id="path20"
         style="fill:#b2c51c;fill-opacity:1;fill-rule:nonzero;stroke:none"
         d="M 0,2.85156 V 140.004 H 86.0586 V 123.676 H 19 V 80.9219 H 82.8281 V 64.5898 H 19 V 19.1797 H 87.5781 V 2.85156 H 0" /><path
         id="path22"
         style="fill:#b2c51c;fill-opacity:1;fill-rule:nonzero;stroke:none"
         d="M 249.641,140.004 V 2.85156 H 226.086 L 156.742,119.301 h -0.379 V 2.85156 H 139.457 V 140.004 h 26.027 L 232.355,26.5898 h 0.379 V 140.004 h 16.907" /><path
         id="path24"
         style="fill:#b2c51c;fill-opacity:1;fill-rule:nonzero;stroke:none"
         d="m 397.465,105.813 c -3.422,16.339 -17.668,20.714 -32.293,20.714 -33.629,0 -45.785,-29.4528 -45.024,-55.0973 1.516,-35.1484 12.157,-54.3399 51.477,-55.0977 9.313,0 18.617,1.5196 27.359,4.3789 v 38.75 h -31.156 v 16.3438 h 50.156 V 7.96875 C 402.211,3.21875 386.445,0 370.867,0 c -19.379,0 -35.144,2.46094 -50.148,15.7617 -15.199,13.2969 -20.52,36.2891 -20.52,55.668 0,14.2461 4.746,29.8243 11.778,42.1683 11.968,20.894 32.105,29.257 55.468,29.257 23.18,0 48.825,-10.636 49.965,-37.042 h -19.945" /><path
         id="path26"
         style="fill:#b2c51c;fill-opacity:1;fill-rule:nonzero;stroke:none"
         d="M 470.82,2.85156 V 140.004 h 18.996 V 2.85156 H 470.82" /><path
         id="path28"
         style="fill:#b2c51c;fill-opacity:1;fill-rule:nonzero;stroke:none"
         d="M 654.531,140.004 V 2.85156 H 630.977 L 561.637,119.301 h -0.383 V 2.85156 H 544.352 V 140.004 h 26.023 L 637.246,26.5898 h 0.383 V 140.004 h 16.902" /><path
         id="path30"
         style="fill:#b2c51c;fill-opacity:1;fill-rule:nonzero;stroke:none"
         d="M 706.422,2.85156 V 140.004 h 86.055 V 123.676 H 725.422 V 80.9219 h 63.824 V 64.5898 H 725.422 V 19.1797 H 794 V 2.85156 h -87.578" /><path
         id="path32"
         style="fill:#b2c51c;fill-opacity:1;fill-rule:nonzero;stroke:none"
         d="M 841.32,2.85156 V 140.004 h 86.063 V 123.676 H 860.316 V 80.9219 h 63.825 V 64.5898 H 860.316 V 19.1797 h 68.582 V 2.85156 H 841.32" /><path
         id="path34"
         style="fill:#b2c51c;fill-opacity:1;fill-rule:nonzero;stroke:none"
         d="m 996.926,81.1172 h 31.334 c 21.1,0.957 25.84,10.4492 25.84,21.2778 0,10.832 -4.74,20.324 -25.84,21.281 h -31.334 z m 0.379,-16.3359 V 2.85156 H 978.301 V 140.004 h 49.019 c 22.98,0 46.73,-7.207 46.73,-34.375 0,-16.5352 -9.87,-29.2618 -25.84,-33.0587 v -0.3789 c 16.54,-3.9805 18.81,-12.7305 20.9,-28.1211 2.09,-13.6797 3.61,-28.3086 8.55,-41.21874 h -20.33 c -1.7,8.16794 -3.99,17.08984 -4.94,25.26954 -1.51,12.3398 -1.51,23.5508 -7.78,30.3984 -5.51,6.2618 -13.11,5.6914 -20.71,6.2618 h -26.595" /><path
         id="path36"
         style="fill:#b2c51c;fill-opacity:1;fill-rule:nonzero;stroke:none"
         d="M 1124.41,2.85156 V 140.004 h 19 V 2.85156 h -19" /><path
         id="path38"
         style="fill:#b2c51c;fill-opacity:1;fill-rule:nonzero;stroke:none"
         d="M 1308.13,140.004 V 2.85156 h -23.56 L 1215.23,119.301 h -0.39 V 2.85156 h -16.89 V 140.004 h 26.02 l 66.87,-113.4142 h 0.38 V 140.004 h 16.91" /><path
         id="path40"
         style="fill:#b2c51c;fill-opacity:1;fill-rule:nonzero;stroke:none"
         d="m 1455.96,105.813 c -3.43,16.339 -17.68,20.714 -32.31,20.714 -33.62,0 -45.78,-29.4528 -45.02,-55.0973 1.53,-35.1484 12.16,-54.3399 51.49,-55.0977 9.3,0 18.61,1.5196 27.35,4.3789 v 38.75 h -31.16 v 16.3438 h 50.16 V 7.96875 C 1460.7,3.21875 1444.93,0 1429.36,0 c -19.38,0 -35.15,2.46094 -50.16,15.7617 -15.2,13.2969 -20.51,36.2891 -20.51,55.668 0,14.2461 4.75,29.8243 11.78,42.1683 11.96,20.894 32.1,29.257 55.47,29.257 23.17,0 48.82,-10.636 49.96,-37.042 h -19.94" /><path
         id="path42"
         style="fill:#547283;fill-opacity:1;fill-rule:nonzero;stroke:none"
         d="m 1770.33,720.117 -69.95,-0.035 c -77.19,0.234 -139.71,62.754 -139.71,139.902 v 139.891 c 0,0 32.04,0.425 51.15,-22.078 21.31,-25.098 18.72,-47.734 18.72,-47.734 0,-0.079 0,-0.118 0,-0.196 l 0.13,-69.785 h 0.11 v -0.098 c 0,-38.632 31.01,-70.078 69.7,-70.078 l 69.85,0.039 c 38.64,0 70.1,31.289 70.1,69.981 v 69.883 c 0,38.691 -31.46,69.98 -70.1,69.98 l -88.58,0.02 c -23.83,41.111 -67.89,68.941 -118.63,69.861 l 207.21,-0.04 c 77.14,0 139.7,-62.73 139.93,-139.919 v -69.863 c -0.23,-77.207 -62.79,-139.731 -139.93,-139.731" /><path
         id="path44"
         style="fill:#b2c51c;fill-opacity:1;fill-rule:nonzero;stroke:none"
         d="m 1580.01,789.945 c 24.16,-41.582 69.03,-69.629 120.55,-69.863 h -209.55 c -77.15,0 -139.71,62.734 -139.93,139.941 v 69.844 c 0.22,77.183 62.78,139.703 139.93,139.703 l 69.94,0.06 c 77.19,-0.21 139.7,-62.75 139.7,-139.919 l 0.04,-139.844 c 0,0 -28.19,-2.851 -51.37,22.93 -20.62,22.91 -18.63,47.109 -18.63,47.109 l -0.13,69.805 c 0,38.652 -31,70.098 -69.71,70.098 l -69.84,-0.059 c -38.65,0 -70.1,-31.289 -70.1,-69.965 v -69.918 c 0,-38.672 31.45,-69.961 70.1,-69.961 l 89,0.039" /></g></g></svg>