<?xml version="1.0" encoding="UTF-8"?>
<svg id="Layer_1" data-name="Layer 1" xmlns="http://www.w3.org/2000/svg" version="1.1" viewBox="0 0 434 148">
  <defs>
    <style>
      .cls-1 {
        fill: #fff;
        stroke-width: 0px;
      }
    </style>
  </defs>
  <path class="cls-1" d="M73.7,115.4c-3.8-.3-6.7-1.4-7.6-1.7,14.9-.8,26.1-11.7,28.6-24.6.9,2,1.5,5.7,1.2,9.1-1,11.4-11,18.2-22.2,17.2ZM106,56.5c-.9-.7-3.3-2.6-5.1-4.1-6.6-5.3-11.8-8.6-11.4-13.8.3-3.2,3.1-5.5,6.5-5.2,6.3.6,13.1,6.8,13.1,6.8,10.3,9,15.9,22.6,14.7,36.4-.5,5.3-1.8,9.3-2.5,11.3.5-6.3-1.8-20.8-15.3-31.5ZM85,23.6c-27.3-2.4-51.4,17.8-53.8,45.1-2.4,27.3,17.8,51.4,45.1,53.8,27.3,2.4,51.4-17.8,53.8-45.1,2.4-27.3-17.8-51.4-45.1-53.8ZM43.6,95.1c-4.6-7.7-6.7-16.7-5.9-25.9,2.1-23.7,21.7-39,42-39.5-.5.2-5.8,3-6.5,10.7-.6,7.2,3.8,13.7,7.4,20.1.9,1.6,1.7,3.1,2.8,5.1,2.9,5.2,6.1,12.1,5.4,19.6-1.2,13.5-13.1,23.2-26.3,22.1-11.4-1-16.4-8-18.9-12.1ZM298.3,94.4c0,2.5-1.5,4.7-4.8,4.7s-4.8-2.1-4.8-4.7v-16c0-4.3-2.1-8-7.1-8s-6.3,2.2-8.3,3.7v20.2c0,2.5-1.5,4.7-4.8,4.7s-4.8-2.1-4.8-4.7v-30.7h8.1l.7,4.2c1.6-1.2,5.8-5.1,12.6-5.1s13.2,3.5,13.2,12.5v19.1ZM207.6,89.2c0,2,1.5,3.2,3.2,3.2,3,0,3.9-2.5,6.2-2.5s3,1.5,3,3.1c0,3.2-3.8,6.1-10.9,6.1s-11.1-4.5-11.1-10.3v-18.3h-6.4v-6.8h6.4v-8.1l9.6-2.6v10.6h12.7l-2.4,6.8h-10.3v18.7ZM318.1,89.2c0,2,1.5,3.2,3.2,3.2,3,0,3.9-2.5,6.2-2.5s3,1.5,3,3.1c0,3.2-3.8,6.1-10.9,6.1s-11.1-4.5-11.1-10.3v-18.3h-6.4v-6.8h6.4v-8.1l9.6-2.6v10.6h12.7l-2.4,6.8h-10.3v18.7ZM153.9,90.8c0-2.1,1.6-3.6,3.6-3.6,3.3,0,5.6,4.6,13.7,4.6s8.6-2.1,8.6-5.9-2.6-5.1-6.8-7.1c-1.4-.6-3.6-1.7-5.1-2.4-5.7-2.7-11.3-6.4-11.3-13.7s6.2-13.1,17.4-13.1,12.8,2.2,13.8,2.7l-2.4,7c-1.3-.6-6-2.3-11-2.3s-7.3,1.8-7.3,5.3,3,5,6.9,6.9c1.2.6,2.5,1.1,3.7,1.7,6.1,2.8,12.4,6.1,12.4,14.1s-8.1,14.1-19,14.1-17.3-4.1-17.3-8.4ZM391.7,99.1c-12.5,0-19.8-8.1-19.8-18.2s7.6-18.2,19.8-18.2,11.1,2.6,11.7,2.9l-2.2,6.3c-.7-.4-3.9-2.5-8.7-2.5-7,0-10.8,5.1-10.8,11.5s3.8,11.5,10.4,11.5,7-3.2,9.5-3.2,3.3,1.6,3.3,3.3c0,3.4-6.1,6.6-13.2,6.6ZM360.5,89.3c-2.7,0-4.5,3.1-9.4,3.1s-8.6-4-9-8.2h24.6v-2.1c0-11.5-6.3-19.4-17.1-19.4s-17.3,7.7-17.3,18.2,5.6,18.2,18.6,18.2,12.9-3.3,12.9-6.6-1-3.2-3.4-3.2ZM349.4,69.5c5.8,0,7.4,4.9,7.4,8.7h-14.9c0-4.4,2.1-8.7,7.5-8.7ZM255.2,88.4v-11.5c0-8.4-5.1-14-16.5-14s-13.1,2.7-14.3,3.4l2.9,5.7c.6-.3,5.3-2.4,9.4-2.4,6,0,8.9,3.2,8.9,6.5v.4l-6,.2c-8.8.3-16.4,3.2-16.4,11.5s5.4,11.1,12.7,11.1,9.5-3.3,10.6-4.3c.2.7,1.3,4.3,5.8,4.3s3.5-1,3.5-2.7-.6-3.4-.6-8ZM245.5,89.9c-.7.5-3.3,2.6-6.8,2.6s-5.7-2.1-5.7-5,2.7-4.8,7.9-5.1h4.6c0-.1,0,7.5,0,7.5Z"/>
</svg>